<svg width="209" height="22" viewBox="0 0 209 22" fill="none" xmlns="http://www.w3.org/2000/svg">
<path d="M0.769043 14.9502C0.748535 14.5127 0.738281 14.0684 0.738281 13.6172C0.738281 13.0293 0.755371 12.4209 0.789551 11.792C0.851074 10.6777 0.960449 9.60107 1.11768 8.56201C1.28174 7.51611 1.49365 6.54883 1.75342 5.66016C2.01318 4.77148 2.30371 4.04688 2.625 3.48633C3.02832 3.24707 3.5957 3.02148 4.32715 2.80957C5.06543 2.59082 5.88574 2.39258 6.78809 2.21484C7.69727 2.03711 8.63379 1.8833 9.59766 1.75342C10.5615 1.62354 11.4707 1.53125 12.3252 1.47656C12.9336 1.44238 13.4941 1.42529 14.0068 1.42529C14.2119 1.42529 14.4033 1.42871 14.5811 1.43555C15.2373 1.45605 15.6953 1.53809 15.9551 1.68164C15.9824 1.86621 16.0098 2.1123 16.0371 2.41992C16.0713 2.72754 16.0952 3.07617 16.1089 3.46582C16.1157 3.62305 16.1191 3.78369 16.1191 3.94775C16.1191 4.20068 16.1123 4.45703 16.0986 4.7168C16.0781 5.1543 16.0303 5.60547 15.9551 6.07031C15.2305 6.125 14.5503 6.16943 13.9146 6.20361C13.2788 6.23779 12.667 6.28223 12.0791 6.33691C11.4912 6.38477 10.9204 6.4668 10.3667 6.58301C9.81299 6.69922 9.25586 6.88379 8.69531 7.13672C8.53809 7.73828 8.38428 8.43896 8.23389 9.23877C8.09033 10.0386 7.98438 10.8418 7.91602 11.6484C7.875 12.127 7.85449 12.5884 7.85449 13.0327C7.85449 13.3403 7.86475 13.6445 7.88525 13.9453C7.93311 14.6562 8.06982 15.2305 8.29541 15.668C8.53467 15.8389 8.87646 15.9722 9.3208 16.0679C9.77197 16.1636 10.271 16.2354 10.8179 16.2832C11.3647 16.3311 11.9321 16.3721 12.52 16.4062C13.1079 16.4336 13.6582 16.4541 14.1709 16.4678C14.6904 16.4814 15.145 16.5054 15.5347 16.5396C15.9243 16.5737 16.2046 16.6318 16.3755 16.7139C16.3823 16.8164 16.3857 16.9224 16.3857 17.0317C16.3857 17.312 16.3721 17.623 16.3447 17.9648C16.3105 18.4502 16.2627 18.915 16.2012 19.3594C16.1396 19.7969 16.0542 20.1899 15.9448 20.5386C15.8423 20.8872 15.7227 21.1196 15.5859 21.2358C14.5059 21.2222 13.3711 21.1914 12.1816 21.1436C10.9922 21.1025 9.79932 21.0239 8.60303 20.9077C7.40674 20.7847 6.22754 20.6069 5.06543 20.3745C3.90332 20.1353 2.80273 19.8174 1.76367 19.4209C1.46973 19.0176 1.24072 18.4229 1.07666 17.6367C0.919434 16.8438 0.816895 15.9482 0.769043 14.9502ZM18.8364 4.57324C18.8433 3.53418 18.8672 2.69678 18.9082 2.06104C19.0176 2.02002 19.2192 1.97559 19.5132 1.92773C19.8071 1.87305 20.1523 1.83203 20.5488 1.80469C20.9521 1.77734 21.3794 1.76025 21.8306 1.75342C22.2886 1.74658 22.7295 1.73975 23.1533 1.73291C23.29 1.73291 23.4233 1.73291 23.5532 1.73291C23.813 1.73291 24.0591 1.73633 24.2915 1.74316C24.6333 1.75684 24.8896 1.77051 25.0605 1.78418C25.0469 2.44043 25.0332 3.33594 25.0195 4.4707C25.0059 5.60547 24.9956 6.83252 24.9888 8.15186C24.9819 9.46436 24.9785 10.8213 24.9785 12.2227C24.9785 13.624 24.9785 14.9229 24.9785 16.1191C24.9785 17.3154 24.9785 18.3511 24.9785 19.2261C24.9785 20.1011 24.9785 20.6787 24.9785 20.959C24.5 21.0137 24.1035 21.0581 23.7891 21.0923C23.4746 21.1265 23.126 21.147 22.7432 21.1538C22.668 21.1538 22.5894 21.1538 22.5073 21.1538C22.1724 21.1538 21.793 21.1436 21.3691 21.123C20.8359 21.0957 20.0977 21.0615 19.1543 21.0205C19.1406 20.4736 19.1201 19.7148 19.0928 18.7441C19.0654 17.7734 19.0381 16.6934 19.0107 15.5039C18.9834 14.3076 18.9526 13.0566 18.9185 11.751C18.8843 10.4385 18.8604 9.17383 18.8467 7.95703C18.8398 7.14355 18.8364 6.37109 18.8364 5.63965C18.8364 5.27051 18.8364 4.91504 18.8364 4.57324ZM27.1626 17.7495C27.1899 16.8403 27.3164 15.938 27.542 15.0425C27.7676 14.1401 28.041 13.3813 28.3623 12.7661C28.6973 12.5542 29.1758 12.356 29.7979 12.1714C30.4268 11.98 31.1172 11.7954 31.8691 11.6177C32.6279 11.4331 33.4175 11.2656 34.2378 11.1152C35.0649 10.958 35.8579 10.8145 36.6167 10.6846C36.5757 10.5137 36.5347 10.3223 36.4937 10.1104C36.4526 9.8916 36.4116 9.74121 36.3706 9.65918C36.0493 9.46094 35.5981 9.31396 35.0171 9.21826C34.4429 9.12256 33.8174 9.06104 33.1406 9.03369C32.6006 9.01318 32.0503 9.00293 31.4897 9.00293C31.3462 9.00293 31.2061 9.00293 31.0693 9.00293C30.3721 9.00977 29.7432 9.01318 29.1826 9.01318C29.1758 8.91064 29.1724 8.79785 29.1724 8.6748C29.1724 8.44238 29.1826 8.19629 29.2031 7.93652C29.2305 7.55371 29.2749 7.18115 29.3364 6.81885C29.4048 6.45654 29.4834 6.13867 29.5723 5.86523C29.6611 5.5918 29.7705 5.39355 29.9004 5.27051C30.8574 5.1748 31.835 5.09961 32.833 5.04492C33.4893 5.00391 34.1455 4.9834 34.8018 4.9834C35.1572 4.9834 35.5059 4.99023 35.8477 5.00391C36.8594 5.03125 37.8506 5.11328 38.8213 5.25C39.7988 5.38672 40.7456 5.58154 41.6616 5.83447C41.9282 6.16943 42.147 6.67871 42.3179 7.3623C42.4956 8.03906 42.6392 8.81836 42.7485 9.7002C42.8579 10.582 42.9365 11.5288 42.9844 12.5405C43.0391 13.5454 43.0698 14.5332 43.0767 15.5039C43.0767 15.6953 43.0767 15.8901 43.0767 16.0884C43.0767 16.854 43.0664 17.5889 43.0459 18.293C43.0186 19.1748 42.9844 19.9233 42.9434 20.5386C42.4512 20.6753 41.8394 20.8086 41.1079 20.9385C40.3833 21.0615 39.6006 21.1675 38.7598 21.2563C37.9189 21.3521 37.0474 21.4307 36.145 21.4922C35.2427 21.5537 34.3745 21.5947 33.5405 21.6152C33.2261 21.6221 32.9219 21.6255 32.6279 21.6255C32.1357 21.6255 31.6709 21.6152 31.2334 21.5947C30.5225 21.5605 29.938 21.5024 29.48 21.4204C29.2954 21.1675 29.0869 20.8838 28.8545 20.5693C28.6289 20.2549 28.4067 19.9302 28.188 19.5952C27.9692 19.2603 27.7676 18.9321 27.583 18.6108C27.4053 18.2827 27.2651 17.9956 27.1626 17.7495ZM33.5713 16.3037C33.585 16.5635 33.6157 16.8198 33.6636 17.0728C33.7183 17.3257 33.7798 17.5513 33.8481 17.7495C34.1079 17.8589 34.4326 17.9136 34.8223 17.9136C34.918 17.9136 35.0205 17.9102 35.1299 17.9033C35.6631 17.8691 36.3057 17.8179 37.0576 17.7495C37.0439 17.1206 37.0337 16.519 37.0269 15.9448C37.02 15.3638 37.0029 14.7725 36.9756 14.1709C36.415 14.2803 35.8784 14.3691 35.3657 14.4375C34.853 14.499 34.3403 14.6562 33.8276 14.9092C33.7251 15.0869 33.6533 15.2988 33.6123 15.5449C33.5781 15.7295 33.5645 15.9209 33.5713 16.1191C33.5713 16.1807 33.5713 16.2422 33.5713 16.3037ZM44.7891 14.1914C44.7754 13.9111 44.7686 13.6309 44.7686 13.3506C44.7686 12.3525 44.8643 11.3545 45.0557 10.3564C45.3018 9.07129 45.7085 7.85791 46.2759 6.71631C47.1851 6.40869 48.1318 6.14893 49.1162 5.93701C50.1074 5.71826 51.1055 5.54736 52.1104 5.42432C53.1221 5.29443 54.127 5.20557 55.125 5.15771C55.7607 5.13037 56.3931 5.1167 57.022 5.1167C57.3774 5.1167 57.7295 5.12012 58.0781 5.12695C58.2627 5.67383 58.3755 6.27197 58.4165 6.92139C58.4507 7.40674 58.4678 7.86816 58.4678 8.30566C58.4678 8.44922 58.4644 8.59277 58.4575 8.73633C57.3774 8.89355 56.3008 9.0166 55.2275 9.10547C54.1611 9.19434 53.0879 9.33105 52.0078 9.51562C51.7822 9.83691 51.6421 10.1855 51.5874 10.5615C51.5327 10.9375 51.4985 11.3169 51.4849 11.6997C52.647 11.9116 53.8022 12.1064 54.9507 12.2842C56.0991 12.4551 57.2612 12.6294 58.437 12.8071C58.6626 13.2856 58.8096 13.8086 58.8779 14.376C58.9189 14.6904 58.9395 15.0083 58.9395 15.3296C58.9395 15.5825 58.9258 15.8389 58.8984 16.0986C58.8438 16.6797 58.7275 17.2471 58.5498 17.8008C58.3789 18.3545 58.1602 18.8535 57.8936 19.2979C56.998 19.7148 56.0581 20.0737 55.0737 20.3745C54.0962 20.6685 53.105 20.9111 52.1001 21.1025C51.1021 21.3008 50.0972 21.4717 49.0854 21.6152C48.0806 21.7656 47.0894 21.8887 46.1118 21.9844C45.9888 21.916 45.8794 21.7075 45.7837 21.3589C45.6948 21.0103 45.623 20.6309 45.5684 20.2207C45.5068 19.8105 45.4624 19.4072 45.4351 19.0107C45.4146 18.751 45.4043 18.5425 45.4043 18.3853C45.4043 18.3101 45.4077 18.2451 45.4146 18.1904C45.9478 18.1494 46.5322 18.0981 47.168 18.0366C47.8037 17.9683 48.4224 17.8828 49.0239 17.7803C49.6255 17.6709 50.1826 17.5547 50.6953 17.4316C51.208 17.3018 51.5977 17.1821 51.8643 17.0728C51.9189 16.9019 51.96 16.6865 51.9873 16.4268C52.001 16.2969 52.0078 16.1704 52.0078 16.0474C52.0078 15.9175 52.001 15.7979 51.9873 15.6885C51.8301 15.5791 51.5771 15.4902 51.2285 15.4219C50.8799 15.3467 50.4766 15.2749 50.0186 15.2065C49.5674 15.1382 49.082 15.0767 48.5625 15.022C48.0498 14.9604 47.5508 14.8955 47.0654 14.8271C46.5801 14.7588 46.1392 14.6768 45.7427 14.5811C45.3462 14.4785 45.0283 14.3486 44.7891 14.1914ZM60.7954 13.5967C60.8022 12.4551 60.8159 11.3613 60.8364 10.3154C60.8638 9.2627 60.8877 8.29883 60.9082 7.42383C60.9287 6.54883 60.9458 5.8584 60.9595 5.35254C61.1851 5.29785 61.4756 5.24658 61.8311 5.19873C62.1865 5.15088 62.5762 5.10645 63 5.06543C63.4102 5.03125 63.834 5.01074 64.2715 5.00391C64.4902 5.00391 64.6987 5.00391 64.897 5.00391C65.0952 5.00391 65.2866 5.00391 65.4712 5.00391C65.8335 5.01074 66.1377 5.03467 66.3838 5.07568C66.6299 5.10986 66.7803 5.16113 66.835 5.22949C66.6982 6.07031 66.6299 6.96924 66.6299 7.92627C66.6299 8.8833 66.6299 9.78906 66.6299 10.6436C66.917 10.7119 67.2793 10.7461 67.7168 10.7461C67.751 10.7461 67.7817 10.7495 67.8091 10.7563C68.2261 10.7495 68.6396 10.7256 69.0498 10.6846C69.501 10.6436 69.9043 10.5889 70.2598 10.5205C70.6221 10.4521 70.875 10.3906 71.0186 10.3359C71.0732 10.083 71.1006 9.74463 71.1006 9.3208C71.1006 8.89014 71.0938 8.43896 71.0801 7.96729C71.0664 7.48877 71.0527 7.00342 71.0391 6.51123C71.0322 6.34717 71.0288 6.18994 71.0288 6.03955C71.0288 5.73877 71.0391 5.46875 71.0596 5.22949C71.2578 5.13379 71.603 5.05176 72.0952 4.9834C72.5942 4.9082 73.1274 4.85352 73.6948 4.81934C74.2622 4.78516 74.7954 4.76807 75.2944 4.76807C75.8003 4.76807 76.166 4.79541 76.3916 4.8501C76.46 5.54053 76.5044 6.37109 76.5249 7.3418C76.5386 8.07324 76.5454 8.83545 76.5454 9.62842C76.5454 9.89502 76.5454 10.1616 76.5454 10.4282C76.5386 11.5151 76.5249 12.6226 76.5044 13.7505C76.4839 14.8716 76.46 15.9277 76.4326 16.9189C76.4053 17.9033 76.3779 18.7886 76.3506 19.5747C76.3232 20.354 76.3027 20.9487 76.2891 21.3589C76.0361 21.3999 75.6465 21.4307 75.1201 21.4512C74.5938 21.4717 74.0503 21.4819 73.4897 21.4819C72.936 21.4819 72.4199 21.4785 71.9414 21.4717C71.4629 21.4648 71.1416 21.4478 70.9775 21.4204C70.9639 21.2085 70.957 20.9727 70.957 20.7129C70.957 20.5215 70.9604 20.3198 70.9673 20.1079C70.9878 19.6089 71.0049 19.0928 71.0186 18.5596C71.0254 18.293 71.0288 18.0298 71.0288 17.77C71.0288 17.5103 71.0254 17.2505 71.0186 16.9907C71.0049 16.4712 70.9536 16.0029 70.8647 15.5859C70.6802 15.5723 70.3828 15.5518 69.9727 15.5244C69.6377 15.4971 69.2891 15.4834 68.9268 15.4834C68.8447 15.4834 68.7627 15.4834 68.6807 15.4834C68.2295 15.4902 67.8159 15.5312 67.4399 15.6064C67.064 15.6748 66.835 15.8013 66.7529 15.9858C66.6846 16.895 66.6367 17.8076 66.6094 18.7236C66.5957 19.1816 66.5889 19.6396 66.5889 20.0977C66.5889 20.5488 66.5957 21.0034 66.6094 21.4614C65.7754 21.6323 64.8662 21.728 63.8818 21.7485C63.6562 21.7554 63.4341 21.7588 63.2153 21.7588C62.4771 21.7588 61.7661 21.7314 61.0825 21.6768C61.0142 21.2119 60.9595 20.5557 60.9185 19.708C60.8843 18.8604 60.8535 17.917 60.8262 16.8779C60.8057 16.0645 60.7954 15.2236 60.7954 14.3555C60.7954 14.1025 60.7954 13.8496 60.7954 13.5967ZM87.0762 17.5137C87.0625 16.8711 87.0557 16.1533 87.0557 15.3604C87.0557 14.5674 87.0557 13.7778 87.0557 12.9917C87.0557 12.1987 87.0659 11.4331 87.0864 10.6948C87.1069 9.94971 87.1309 9.29688 87.1582 8.73633C87.3291 8.56543 87.5479 8.33301 87.8145 8.03906C88.0811 7.74512 88.3579 7.44775 88.645 7.14697C88.9321 6.84619 89.2056 6.56934 89.4653 6.31641C89.7319 6.05664 89.9575 5.86865 90.1421 5.75244C90.7847 5.71143 91.5571 5.65332 92.4595 5.57812C93.3687 5.49609 94.3086 5.43457 95.2793 5.39355C96.0107 5.36621 96.7319 5.35254 97.4429 5.35254C97.6821 5.35254 97.918 5.35254 98.1504 5.35254C99.0938 5.36621 99.9312 5.44482 100.663 5.58838C101.196 6.00537 101.708 6.55225 102.201 7.229C102.7 7.89893 103.154 8.52783 103.564 9.11572C103.605 9.68994 103.643 10.4009 103.677 11.2485C103.711 12.0962 103.735 12.9541 103.749 13.8223C103.756 14.4033 103.759 14.9536 103.759 15.4731C103.759 15.7261 103.759 15.9756 103.759 16.2217C103.752 16.96 103.722 17.5034 103.667 17.8521C103.264 18.3579 102.867 18.8809 102.478 19.4209C102.095 19.9541 101.678 20.4736 101.227 20.9795C100.557 21.1025 99.7124 21.1914 98.6938 21.2461C97.6821 21.3076 96.6191 21.3384 95.5049 21.3384C94.3906 21.3384 93.2866 21.3145 92.1929 21.2666C91.106 21.2256 90.1489 21.1572 89.3218 21.0615C89.1372 20.877 88.9355 20.6411 88.7168 20.354C88.5049 20.0601 88.293 19.7456 88.0811 19.4106C87.876 19.0688 87.6812 18.7305 87.4966 18.3955C87.312 18.0605 87.1719 17.7666 87.0762 17.5137ZM93.249 13.5454C93.249 14.0923 93.249 14.6187 93.249 15.1245C93.249 15.6235 93.2559 16.0713 93.2695 16.4678C93.2832 16.8574 93.29 17.1514 93.29 17.3496C93.5908 17.4863 93.9326 17.5718 94.3154 17.606C94.4932 17.6196 94.6675 17.6265 94.8384 17.6265C95.0503 17.6265 95.2656 17.6162 95.4844 17.5957C95.8809 17.5547 96.25 17.4727 96.5918 17.3496C96.9404 17.2266 97.2207 17.0796 97.4326 16.9087C97.46 15.8628 97.4873 14.6973 97.5146 13.4121C97.5215 13.2344 97.5249 13.0566 97.5249 12.8789C97.5249 11.7646 97.4497 10.6299 97.2993 9.47461C96.937 9.48828 96.5918 9.49854 96.2637 9.50537C95.9355 9.51221 95.6211 9.5293 95.3203 9.55664C95.0195 9.58398 94.7222 9.62842 94.4282 9.68994C94.1343 9.75146 93.8335 9.854 93.5259 9.99756C93.4575 10.1343 93.4028 10.3838 93.3618 10.7461C93.3276 11.1016 93.3003 11.522 93.2798 12.0073C93.2593 12.4858 93.249 12.9985 93.249 13.5454ZM105.8 10.4897C105.82 10.1206 105.848 9.77881 105.882 9.46436C105.916 9.1499 105.954 8.89355 105.995 8.69531C106.275 8.66797 106.702 8.64404 107.276 8.62354C107.851 8.60303 108.473 8.59277 109.143 8.59277C109.17 7.83398 109.211 7.11279 109.266 6.4292C109.327 5.73877 109.399 5.10986 109.481 4.54248C109.563 3.9751 109.662 3.49316 109.778 3.09668C109.901 2.7002 110.042 2.396 110.199 2.18408C111.108 1.84912 111.942 1.59619 112.701 1.42529C113.466 1.24756 114.218 1.11768 114.957 1.03564C115.702 0.946777 116.464 0.895508 117.243 0.881836C118.029 0.868164 118.901 0.854492 119.858 0.84082C119.981 0.922852 120.087 1.09033 120.176 1.34326C120.271 1.59619 120.35 1.8833 120.412 2.20459C120.473 2.52588 120.518 2.87109 120.545 3.24023C120.565 3.47949 120.576 3.70166 120.576 3.90674C120.576 4.00928 120.572 4.1084 120.565 4.2041C119.779 4.25879 118.966 4.37842 118.125 4.56299C117.291 4.74072 116.553 5.03809 115.91 5.45508C115.787 5.68066 115.681 5.98828 115.592 6.37793C115.51 6.76074 115.438 7.36572 115.377 8.19287C115.767 8.26123 116.129 8.30225 116.464 8.31592C116.806 8.32959 117.137 8.33643 117.458 8.33643C117.78 8.33643 118.104 8.33301 118.433 8.32617C118.501 8.32617 118.569 8.32617 118.638 8.32617C118.904 8.32617 119.178 8.33643 119.458 8.35693C119.54 8.71924 119.595 9.04053 119.622 9.3208C119.643 9.54639 119.653 9.77197 119.653 9.99756C119.653 10.0522 119.653 10.1069 119.653 10.1616C119.646 10.4419 119.615 10.7222 119.561 11.0024C119.506 11.2827 119.438 11.5972 119.355 11.9458C118.85 12.0142 118.446 12.062 118.146 12.0894C117.845 12.1099 117.561 12.1338 117.294 12.1611C117.028 12.1885 116.744 12.2227 116.443 12.2637C116.143 12.3047 115.739 12.3765 115.233 12.479C115.22 13.1763 115.213 13.9385 115.213 14.7656C115.213 15.5928 115.213 16.3926 115.213 17.165C115.213 17.9307 115.216 18.6382 115.223 19.2876C115.23 19.937 115.24 20.4292 115.254 20.7642C114.803 20.8599 114.311 20.9385 113.777 21C113.251 21.0547 112.718 21.0957 112.178 21.123C111.747 21.1436 111.33 21.1538 110.927 21.1538C110.824 21.1538 110.722 21.1538 110.619 21.1538C110.127 21.147 109.693 21.1162 109.317 21.0615C109.29 20.6992 109.259 20.2139 109.225 19.6055C109.197 18.9971 109.17 18.3169 109.143 17.5649C109.115 16.8062 109.095 15.9927 109.081 15.1245C109.067 14.2563 109.061 13.3643 109.061 12.4482C108.486 12.4756 107.933 12.5063 107.399 12.5405C106.866 12.5679 106.384 12.6157 105.954 12.6841C105.885 12.3491 105.841 11.9902 105.82 11.6074C105.8 11.3887 105.79 11.1699 105.79 10.9512C105.79 10.8008 105.793 10.647 105.8 10.4897ZM130.337 14.9502C130.317 14.5127 130.307 14.0684 130.307 13.6172C130.307 13.0293 130.324 12.4209 130.358 11.792C130.419 10.6777 130.529 9.60107 130.686 8.56201C130.85 7.51611 131.062 6.54883 131.322 5.66016C131.582 4.77148 131.872 4.04688 132.193 3.48633C132.597 3.24707 133.164 3.02148 133.896 2.80957C134.634 2.59082 135.454 2.39258 136.356 2.21484C137.266 2.03711 138.202 1.8833 139.166 1.75342C140.13 1.62354 141.039 1.53125 141.894 1.47656C142.502 1.44238 143.062 1.42529 143.575 1.42529C143.78 1.42529 143.972 1.42871 144.149 1.43555C144.806 1.45605 145.264 1.53809 145.523 1.68164C145.551 1.86621 145.578 2.1123 145.605 2.41992C145.64 2.72754 145.664 3.07617 145.677 3.46582C145.684 3.62305 145.688 3.78369 145.688 3.94775C145.688 4.20068 145.681 4.45703 145.667 4.7168C145.646 5.1543 145.599 5.60547 145.523 6.07031C144.799 6.125 144.119 6.16943 143.483 6.20361C142.847 6.23779 142.235 6.28223 141.647 6.33691C141.06 6.38477 140.489 6.4668 139.935 6.58301C139.381 6.69922 138.824 6.88379 138.264 7.13672C138.106 7.73828 137.953 8.43896 137.802 9.23877C137.659 10.0386 137.553 10.8418 137.484 11.6484C137.443 12.127 137.423 12.5884 137.423 13.0327C137.423 13.3403 137.433 13.6445 137.454 13.9453C137.501 14.6562 137.638 15.2305 137.864 15.668C138.103 15.8389 138.445 15.9722 138.889 16.0679C139.34 16.1636 139.839 16.2354 140.386 16.2832C140.933 16.3311 141.5 16.3721 142.088 16.4062C142.676 16.4336 143.227 16.4541 143.739 16.4678C144.259 16.4814 144.713 16.5054 145.103 16.5396C145.493 16.5737 145.773 16.6318 145.944 16.7139C145.951 16.8164 145.954 16.9224 145.954 17.0317C145.954 17.312 145.94 17.623 145.913 17.9648C145.879 18.4502 145.831 18.915 145.77 19.3594C145.708 19.7969 145.623 20.1899 145.513 20.5386C145.411 20.8872 145.291 21.1196 145.154 21.2358C144.074 21.2222 142.939 21.1914 141.75 21.1436C140.561 21.1025 139.368 21.0239 138.171 20.9077C136.975 20.7847 135.796 20.6069 134.634 20.3745C133.472 20.1353 132.371 19.8174 131.332 19.4209C131.038 19.0176 130.809 18.4229 130.645 17.6367C130.488 16.8438 130.385 15.9482 130.337 14.9502ZM148.405 4.57324C148.412 3.53418 148.436 2.69678 148.477 2.06104C148.586 2.02002 148.788 1.97559 149.082 1.92773C149.375 1.87305 149.721 1.83203 150.117 1.80469C150.521 1.77734 150.948 1.76025 151.399 1.75342C151.857 1.74658 152.298 1.73975 152.722 1.73291C152.858 1.73291 152.992 1.73291 153.122 1.73291C153.381 1.73291 153.627 1.73633 153.86 1.74316C154.202 1.75684 154.458 1.77051 154.629 1.78418C154.615 2.44043 154.602 3.33594 154.588 4.4707C154.574 5.60547 154.564 6.83252 154.557 8.15186C154.55 9.46436 154.547 10.8213 154.547 12.2227C154.547 13.624 154.547 14.9229 154.547 16.1191C154.547 17.3154 154.547 18.3511 154.547 19.2261C154.547 20.1011 154.547 20.6787 154.547 20.959C154.068 21.0137 153.672 21.0581 153.357 21.0923C153.043 21.1265 152.694 21.147 152.312 21.1538C152.236 21.1538 152.158 21.1538 152.076 21.1538C151.741 21.1538 151.361 21.1436 150.938 21.123C150.404 21.0957 149.666 21.0615 148.723 21.0205C148.709 20.4736 148.688 19.7148 148.661 18.7441C148.634 17.7734 148.606 16.6934 148.579 15.5039C148.552 14.3076 148.521 13.0566 148.487 11.751C148.453 10.4385 148.429 9.17383 148.415 7.95703C148.408 7.14355 148.405 6.37109 148.405 5.63965C148.405 5.27051 148.405 4.91504 148.405 4.57324ZM156.731 17.7495C156.758 16.8403 156.885 15.938 157.11 15.0425C157.336 14.1401 157.609 13.3813 157.931 12.7661C158.266 12.5542 158.744 12.356 159.366 12.1714C159.995 11.98 160.686 11.7954 161.438 11.6177C162.196 11.4331 162.986 11.2656 163.806 11.1152C164.633 10.958 165.426 10.8145 166.185 10.6846C166.144 10.5137 166.103 10.3223 166.062 10.1104C166.021 9.8916 165.98 9.74121 165.939 9.65918C165.618 9.46094 165.167 9.31396 164.585 9.21826C164.011 9.12256 163.386 9.06104 162.709 9.03369C162.169 9.01318 161.619 9.00293 161.058 9.00293C160.915 9.00293 160.774 9.00293 160.638 9.00293C159.94 9.00977 159.312 9.01318 158.751 9.01318C158.744 8.91064 158.741 8.79785 158.741 8.6748C158.741 8.44238 158.751 8.19629 158.771 7.93652C158.799 7.55371 158.843 7.18115 158.905 6.81885C158.973 6.45654 159.052 6.13867 159.141 5.86523C159.229 5.5918 159.339 5.39355 159.469 5.27051C160.426 5.1748 161.403 5.09961 162.401 5.04492C163.058 5.00391 163.714 4.9834 164.37 4.9834C164.726 4.9834 165.074 4.99023 165.416 5.00391C166.428 5.03125 167.419 5.11328 168.39 5.25C169.367 5.38672 170.314 5.58154 171.23 5.83447C171.497 6.16943 171.715 6.67871 171.886 7.3623C172.064 8.03906 172.208 8.81836 172.317 9.7002C172.426 10.582 172.505 11.5288 172.553 12.5405C172.607 13.5454 172.638 14.5332 172.645 15.5039C172.645 15.6953 172.645 15.8901 172.645 16.0884C172.645 16.854 172.635 17.5889 172.614 18.293C172.587 19.1748 172.553 19.9233 172.512 20.5386C172.02 20.6753 171.408 20.8086 170.676 20.9385C169.952 21.0615 169.169 21.1675 168.328 21.2563C167.487 21.3521 166.616 21.4307 165.713 21.4922C164.811 21.5537 163.943 21.5947 163.109 21.6152C162.794 21.6221 162.49 21.6255 162.196 21.6255C161.704 21.6255 161.239 21.6152 160.802 21.5947C160.091 21.5605 159.506 21.5024 159.048 21.4204C158.864 21.1675 158.655 20.8838 158.423 20.5693C158.197 20.2549 157.975 19.9302 157.756 19.5952C157.538 19.2603 157.336 18.9321 157.151 18.6108C156.974 18.2827 156.833 17.9956 156.731 17.7495ZM163.14 16.3037C163.153 16.5635 163.184 16.8198 163.232 17.0728C163.287 17.3257 163.348 17.5513 163.417 17.7495C163.676 17.8589 164.001 17.9136 164.391 17.9136C164.486 17.9136 164.589 17.9102 164.698 17.9033C165.231 17.8691 165.874 17.8179 166.626 17.7495C166.612 17.1206 166.602 16.519 166.595 15.9448C166.588 15.3638 166.571 14.7725 166.544 14.1709C165.983 14.2803 165.447 14.3691 164.934 14.4375C164.421 14.499 163.909 14.6562 163.396 14.9092C163.293 15.0869 163.222 15.2988 163.181 15.5449C163.146 15.7295 163.133 15.9209 163.14 16.1191C163.14 16.1807 163.14 16.2422 163.14 16.3037ZM174.696 14.1196C174.689 13.1353 174.686 12.1611 174.686 11.1973C174.686 10.2266 174.692 9.30029 174.706 8.41846C174.727 7.53662 174.75 6.76758 174.778 6.11133C174.846 6.04297 175.062 5.97803 175.424 5.9165C175.786 5.84814 176.23 5.77979 176.757 5.71143C177.283 5.64307 177.854 5.58496 178.469 5.53711C179.084 5.48242 179.679 5.43799 180.253 5.40381C180.828 5.36963 181.351 5.35254 181.822 5.35254C182.301 5.35254 182.653 5.37305 182.878 5.41406C183.282 6.54883 183.733 7.66309 184.232 8.75684C184.731 9.85059 185.227 10.9443 185.719 12.0381C185.76 12.1338 185.828 12.2124 185.924 12.2739C186.026 12.3354 186.132 12.356 186.242 12.3354C186.351 12.3149 186.454 12.2603 186.549 12.1714C186.652 12.0825 186.73 11.9458 186.785 11.7612C186.799 11.6929 186.816 11.4229 186.836 10.9512C186.857 10.4795 186.874 9.93262 186.888 9.31055C186.901 8.68848 186.918 8.06641 186.939 7.44434C186.966 6.82227 186.987 6.33691 187 5.98828C187.8 5.80371 188.604 5.68408 189.41 5.62939C189.813 5.60205 190.217 5.58838 190.62 5.58838C191.03 5.58838 191.44 5.60205 191.851 5.62939C191.871 7.27002 191.881 8.91748 191.881 10.5718C191.881 11.3989 191.878 12.2227 191.871 13.043C191.857 15.5312 191.813 18.0024 191.738 20.4565C191.334 20.5112 190.853 20.5693 190.292 20.6309C189.731 20.6924 189.126 20.7607 188.477 20.8359C187.828 20.9043 187.151 20.959 186.447 21C185.75 21.041 185.052 21.0684 184.355 21.082C183.671 20.0771 183.049 19.0244 182.489 17.9238C181.935 16.8232 181.416 15.7056 180.93 14.5708C180.875 14.4478 180.787 14.3555 180.664 14.2939C180.547 14.2256 180.424 14.2051 180.294 14.2324C180.171 14.2529 180.055 14.311 179.946 14.4067C179.843 14.5024 179.778 14.6562 179.751 14.8682C179.655 15.7158 179.597 16.6318 179.577 17.6162C179.57 17.8418 179.566 18.0742 179.566 18.3135C179.566 19.1064 179.594 19.9609 179.648 20.877C178.896 21.0752 178.138 21.188 177.372 21.2153C177.242 21.2222 177.105 21.2256 176.962 21.2256C176.326 21.2256 175.667 21.1709 174.983 21.0615C174.928 20.6445 174.88 20.0771 174.839 19.3594C174.798 18.6348 174.768 17.8247 174.747 16.9292C174.727 16.0337 174.709 15.0972 174.696 14.1196ZM193.881 14.1914C193.867 13.9111 193.86 13.6309 193.86 13.3506C193.86 12.3525 193.956 11.3545 194.147 10.3564C194.394 9.07129 194.8 7.85791 195.368 6.71631C196.277 6.40869 197.224 6.14893 198.208 5.93701C199.199 5.71826 200.197 5.54736 201.202 5.42432C202.214 5.29443 203.219 5.20557 204.217 5.15771C204.853 5.13037 205.485 5.1167 206.114 5.1167C206.469 5.1167 206.821 5.12012 207.17 5.12695C207.354 5.67383 207.467 6.27197 207.508 6.92139C207.542 7.40674 207.56 7.86816 207.56 8.30566C207.56 8.44922 207.556 8.59277 207.549 8.73633C206.469 8.89355 205.393 9.0166 204.319 9.10547C203.253 9.19434 202.18 9.33105 201.1 9.51562C200.874 9.83691 200.734 10.1855 200.679 10.5615C200.625 10.9375 200.59 11.3169 200.577 11.6997C201.739 11.9116 202.894 12.1064 204.042 12.2842C205.191 12.4551 206.353 12.6294 207.529 12.8071C207.754 13.2856 207.901 13.8086 207.97 14.376C208.011 14.6904 208.031 15.0083 208.031 15.3296C208.031 15.5825 208.018 15.8389 207.99 16.0986C207.936 16.6797 207.819 17.2471 207.642 17.8008C207.471 18.3545 207.252 18.8535 206.985 19.2979C206.09 19.7148 205.15 20.0737 204.166 20.3745C203.188 20.6685 202.197 20.9111 201.192 21.1025C200.194 21.3008 199.189 21.4717 198.177 21.6152C197.172 21.7656 196.181 21.8887 195.204 21.9844C195.081 21.916 194.971 21.7075 194.875 21.3589C194.787 21.0103 194.715 20.6309 194.66 20.2207C194.599 19.8105 194.554 19.4072 194.527 19.0107C194.506 18.751 194.496 18.5425 194.496 18.3853C194.496 18.3101 194.5 18.2451 194.506 18.1904C195.04 18.1494 195.624 18.0981 196.26 18.0366C196.896 17.9683 197.514 17.8828 198.116 17.7803C198.717 17.6709 199.274 17.5547 199.787 17.4316C200.3 17.3018 200.689 17.1821 200.956 17.0728C201.011 16.9019 201.052 16.6865 201.079 16.4268C201.093 16.2969 201.1 16.1704 201.1 16.0474C201.1 15.9175 201.093 15.7979 201.079 15.6885C200.922 15.5791 200.669 15.4902 200.32 15.4219C199.972 15.3467 199.568 15.2749 199.11 15.2065C198.659 15.1382 198.174 15.0767 197.654 15.022C197.142 14.9604 196.643 14.8955 196.157 14.8271C195.672 14.7588 195.231 14.6768 194.834 14.5811C194.438 14.4785 194.12 14.3486 193.881 14.1914Z" fill="white"/>
</svg>
